<?xml version="1.0" standalone="no"?>
<!DOCTYPE svg PUBLIC "-//W3C//DTD SVG 20010904//EN"
 "http://www.w3.org/TR/2001/REC-SVG-20010904/DTD/svg10.dtd">
<svg version="1.0" xmlns="http://www.w3.org/2000/svg"
 width="114.000000pt" height="114.000000pt" viewBox="0 0 114.000000 114.000000"
 preserveAspectRatio="xMidYMid meet">
<metadata>
Created by potrace 1.11, written by Peter Selinger 2001-2013
</metadata>
<g transform="translate(0.000000,114.000000) scale(0.100000,-0.100000)"
fill="#000000" stroke="none">
<path d="M524 1073 c-27 -37 -51 -70 -54 -73 -28 -25 -168 -233 -173 -256 -3
-16 -18 -83 -32 -149 -14 -66 -27 -129 -29 -140 -5 -29 -14 -70 -30 -150 -12
-55 -13 -72 -3 -81 7 -6 92 -59 191 -118 l178 -107 194 116 c107 64 192 120
190 124 -3 4 -8 23 -11 42 -3 19 -17 84 -30 146 -14 61 -26 122 -29 135 -21
112 -38 186 -45 204 -6 15 -243 345 -266 372 -2 2 -25 -27 -51 -65z m87 -80
c20 -27 66 -89 102 -139 l67 -91 -103 -308 -104 -308 -35 104 c-98 285 -168
498 -168 509 0 10 34 60 65 97 6 6 37 50 70 97 33 47 62 86 65 86 3 0 22 -21
41 -47z m214 -414 c21 -94 21 -94 46 -218 17 -86 19 -106 7 -113 -45 -28 -115
-69 -128 -75 -8 -4 -17 -10 -20 -13 -3 -4 -30 -21 -61 -38 l-56 -31 96 284
c52 156 97 283 98 281 1 -1 10 -36 18 -77z m-391 -197 c49 -147 91 -273 94
-280 3 -9 -6 -7 -26 5 -49 29 -174 105 -213 129 l-36 22 28 134 c16 73 30 144
32 158 13 74 20 100 26 100 3 0 46 -120 95 -268z"/>
</g>
</svg>
